<svg xmlns="http://www.w3.org/2000/svg" viewBox="0 0 591.53 247.02"><defs><style>.a{fill:#fff;}</style></defs><title>アセット 1</title><path class="a" d="M39.32,100.9c17.08.1,22-13.13,22-13.13s-4.64,16.59-21.93,19C15.32,110,.41,91.42,0,73.15-.48,49.85,15.81,38,33.49,36.71a51.88,51.88,0,0,1,12.94.79c8.19,1.58,12.34,4.84,12.34,4.84l-.1,14.12A33,33,0,0,0,43,40.56c-7.11-3.25-15-3.35-21.83.6C13,46,8.31,57.35,9.39,70.78,10.78,89.05,23.81,100.8,39.32,100.9Z"/><path class="a" d="M156.23,106.53H141.61a50.85,50.85,0,0,1-6.71-10.07l-9-15.5c-4.94-8.6-10.27-7.81-15.7-7.81l-.1,27.26c0,5.92,6.12,6.12,7.31,6.12h-25c1.19,0,8.4-.2,8.4-7.7V45.11c0-7.51-7.61-7.71-8.4-7.71,8.69,0,17.48-.49,25.08-.39,12,.1,19.76,1.48,23.9,7.7a16.77,16.77,0,0,1,2.87,10.37,18.31,18.31,0,0,1-6.72,13.73,19.12,19.12,0,0,1-9.28,4c1.28.39,4.05,1.48,8.49,9.28l8.89,15.11C149.91,104.75,156.23,106.53,156.23,106.53Zm-21-51.65c.2-14.81-10-17.77-25.08-17l.1,34.17a65.75,65.75,0,0,0,9-.5C129.86,70.39,135.09,63.87,135.19,54.88Z"/><path class="a" d="M237.67,37.4c-5.63,1.29-10,6-12.64,10.77l-11.65,21a22.08,22.08,0,0,0-2.57,10.87V98.43c0,6.92,6.62,8,8.3,8.1h-26c1.68,0,8.4-1.08,8.5-7.7l.1-17.68a16.54,16.54,0,0,0-2.37-9.08L183.75,45.4c-3.85-6.32-9.18-8-11.26-8l26,.1c-5.14.3-7,4.35-4.25,9.09l13.13,23c1.39,2.37,3.16,2.57,4.84-.5L222.86,50c3.65-6.52,2.76-11.46-4.35-12.55Z"/><path class="a" d="M300.74,44.91c-6.71-6.62-17.28-9.09-24.1-5-3.95,2.47-5.62,7.31-4.83,12.05,1.08,6.72,6.22,11.16,17.08,13.43,19.16,4,25.58,11.26,24.2,24-1.09,13.73-12.65,18.57-23.8,18.57-10.57-.1-19.56-2.77-25.88-7.51l-.2-18.76c4.05,11.55,13.93,20.73,24.69,23.3,9.58,2.08,19.85-.29,20.25-10.47.39-7.2-3.46-14.31-22.72-18.76C268.74,71.77,265,64,265.49,54.59c.39-11.26,10.46-18.27,23.8-18.17,11.75.1,19.25,4.84,19.25,4.84l.1,13.92S306.86,50.54,300.74,44.91Z"/><path class="a" d="M407.09,54a35,35,0,0,0-6.71-9.68c-3.56-3.36-8.5-5.83-16-5.83h-3.56V97.74c0,8.59,8.1,8.79,9.29,8.79H362.46c1.18,0,9.18-.2,9.18-8.79V38.49h-4.15a22.39,22.39,0,0,0-16,6,35.5,35.5,0,0,0-7.11,9.68l2.87-16.79h57.28Z"/><path class="a" d="M497.4,106.53H470.93s9.09-.79,5.93-9l-7-19.26H447l-6.42,16.89c-2.27,6-.69,10.76,6.72,11.35H427.78c4.44-.29,8.78-4.24,11.55-11.65l23.5-60.44a7.33,7.33,0,0,0,.3.89l24.39,62.61C490.58,105.64,495.92,106.43,497.4,106.53ZM454.54,58.64l-7,18.66,21.92-.1-7.31-20.54c-1.68-4.44-2.57-5.53-3.45-5.53C457.4,51.13,456,54.79,454.54,58.64Zm42.86,47.89h0Z"/><path class="a" d="M591.53,106.53H576.91a50.85,50.85,0,0,1-6.71-10.07l-9-15.5c-4.94-8.6-10.27-7.81-15.7-7.81l-.1,27.26c0,5.92,6.12,6.12,7.31,6.12h-25c1.19,0,8.4-.2,8.4-7.7V45.11c0-7.51-7.61-7.71-8.4-7.71,8.69,0,17.48-.49,25.08-.39,12,.1,19.76,1.48,23.9,7.7a16.77,16.77,0,0,1,2.87,10.37,18.31,18.31,0,0,1-6.72,13.73,19.12,19.12,0,0,1-9.28,4c1.28.39,4,1.48,8.49,9.28L581,97.15C585.21,104.75,591.53,106.53,591.53,106.53Zm-21-51.65c.2-14.81-10-17.77-25.08-17l.1,34.17a65.75,65.75,0,0,0,9-.5C565.16,70.39,570.39,63.87,570.49,54.88Z"/><path class="a" d="M100.27,152.3c-2.7-2.66-7-3.66-9.69-2a4.71,4.71,0,0,0-2,4.85c.44,2.7,2.5,4.49,6.87,5.41,7.72,1.59,10.3,4.53,9.74,9.66-.43,5.52-5.09,7.47-9.58,7.47a17.56,17.56,0,0,1-10.41-3l-.08-7.55a14.71,14.71,0,0,0,9.94,9.38c3.85.83,8-.12,8.15-4.22.15-2.9-1.4-5.76-9.15-7.55-6.71-1.59-8.22-4.73-8-8.5.16-4.54,4.22-7.36,9.58-7.32a15.84,15.84,0,0,1,7.75,2l0,5.6A12.42,12.42,0,0,0,100.27,152.3Z"/><path class="a" d="M135.13,174.12c-.44,1.47-1.11,3.3-3.42,3.3-1.87,0-2.74-1.19-2.74-3.26v-7.67c-4.53,1.35-8.31,2.82-8.51,5.8a3.15,3.15,0,0,0,3.18,3.5,7.44,7.44,0,0,0,5.17-1.91c-1.39,1.47-3.42,3.7-6.8,3.7-3.66,0-4.77-2.7-4.65-4.61.24-4.29,5.88-5.21,11.61-6.84v-2.22c0-3.94-1.91-5.41-4.45-4.93-1.79.32-3.58,1.39-3.58,3.42,0,.79.47,1.19.55,2a1.72,1.72,0,0,1-1.78,1.79,1.69,1.69,0,0,1-1.75-2c.08-2.87,3.77-5,6.64-5.57,3.53-.68,7.63.2,7.51,5.49v9.73c0,2.23,1.51,2.11,2.34,1C134.89,174.84,135.09,174.24,135.13,174.12Z"/><path class="a" d="M152.7,177.1H144c.28,0,2.94,0,2.94-2.7V153.61c0-1.63-.95-2.18-1.71-1.87l4.85-3.1,0,25.76A2.53,2.53,0,0,0,152.7,177.1Zm2.19-14c1.79-2,.6-3.89-1.79-4h8c-.48.08-2.94,1-6.08,4.37l-1.47,1.59c-.52.6-.48,1.19,0,2,.4.55,4.69,6.36,6.32,8.11a5.54,5.54,0,0,0,3.1,1.94h-7.43c.83-.08,1.11-.91.32-2-.64-.92-4.14-5.53-4.78-6.2-.39-.48-.67-.72-.95-.6Z"/><path class="a" d="M185.21,173.21c-1.51,1.87-4.89,4.57-8.31,4.29-3.82-.36-3.58-4-3.58-7.83V162a2.62,2.62,0,0,0-2.82-2.74h5.92v9.38c0,3.85,0,6.12,2,6.79C180.16,176.07,183.3,175,185.21,173.21Zm-2.51-14h5.85v14c0,1.63,1.23,1.43,1.51,1.43l-4.62,3V161.8A2.52,2.52,0,0,0,182.7,159.22Z"/><path class="a" d="M213.92,175.43a11.64,11.64,0,0,0,3.41-4.21l-1.11,6-15.58,0,11.21-16.25c.72-1,.67-1.59-.72-1.59h-2.38a7.59,7.59,0,0,0-4.85,1.59,12.64,12.64,0,0,0-2.9,2.74l1.31-4.61h14.63c-2.86,3.89-10.74,15.34-11.25,16.21s-.48,1.63.83,1.63l2.31,0A8.83,8.83,0,0,0,213.92,175.43Z"/><path class="a" d="M246.72,159.22a5.15,5.15,0,0,0-2.42,1.51,6,6,0,0,0-1.24,2l-6.2,15.19-2.26,5.44c-.88,2.11-1.87,2.35-3.06,2.19a1.71,1.71,0,0,1-1.36-2.11,1.65,1.65,0,0,1,1.67-1.15c.76.08,1.08.88,1.51,1,.72.15,1.16-.44,1.55-1.32l1.75-4.25-7.15-16.18a3.75,3.75,0,0,0-3.1-2.26h8s-2.43.2-1.55,2.3l4.13,9.62c.36.76.68,1.23,1.19,1.23s.88-.87,1.28-1.63l3.18-7.79.15-.43c.64-1.83-.31-3-2.42-3.3Z"/><path class="a" d="M254.44,170.39c-1.12-5.37,1.62-10.22,6.63-11.53,5.69-1.47,10.93,1.15,11.69,7.83.68,6-3.38,10.53-8.51,10.77C261.43,177.58,255.87,176.75,254.44,170.39ZM261,159.26c-3.34,1.23-4.09,6.12-3.18,10.37,1.16,5.72,4.65,7.51,7.4,7.27,4.05-.43,5-5.8,4.09-10.89C268.43,161.44,265.13,157.71,261,159.26Z"/><path class="a" d="M300.33,174.84c6.87,0,8.86-5.29,8.86-5.29s-1.87,6.68-8.82,7.63c-9.7,1.31-15.7-6.16-15.86-13.51-.2-9.38,6.36-14.15,13.47-14.67a20.65,20.65,0,0,1,5.21.32,12.23,12.23,0,0,1,5,2l0,5.68a13.35,13.35,0,0,0-6.32-6.4,9.43,9.43,0,0,0-8.79.24c-3.29,2-5.16,6.52-4.73,11.92C288.84,170.07,294.09,174.8,300.33,174.84Z"/><path class="a" d="M320.69,170.39c-1.11-5.37,1.63-10.22,6.64-11.53,5.69-1.47,10.93,1.15,11.69,7.83.67,6-3.38,10.53-8.51,10.77C327.69,177.58,322.12,176.75,320.69,170.39Zm6.56-11.13c-3.34,1.23-4.09,6.12-3.18,10.37,1.16,5.72,4.65,7.51,7.4,7.27,4-.43,5-5.8,4.09-10.89C334.69,161.44,331.39,157.71,327.25,159.26Z"/><path class="a" d="M358,177.1h-8.67a2.61,2.61,0,0,0,2.78-2.7v-11c0-2.07-1.39-2-1.67-1.91l4.74-3.06v16A2.63,2.63,0,0,0,358,177.1Zm5.4-18.48c4,.36,3.58,4.09,3.58,7.91v7.87a2.63,2.63,0,0,0,2.82,2.7h-8.7a2.61,2.61,0,0,0,2.78-2.7v-7.67c0-3.5.08-5.61-2.19-6.12-1.9-.48-4.53.83-6.44,2.34C357,161,360.14,158.34,363.4,158.62Zm11.85,0c4,.36,3.62,4.05,3.62,7.87v7.87a2.63,2.63,0,0,0,2.82,2.7H373a2.61,2.61,0,0,0,2.79-2.7v-7.55c0-3.5.07-5.45-2.07-6-1.87-.72-4.53.51-6.56,2.14C368.89,161,372.15,158.38,375.25,158.66Z"/><path class="a" d="M410.23,167.76c0,5.81-3.94,9.58-8.07,9.66a8.33,8.33,0,0,1-5.8-2.15v7.8c0,2.58,2.66,2.58,3,2.58h-8.79a2.57,2.57,0,0,0,2.7-2.58V163.55c0-1.91-1.07-2.23-1.74-2.07l4.85-3.06v10.34c0,6,3.45,8.5,6.59,8.18,2.75-.23,4.3-3.81,4.26-8.66-.12-5.13-2.55-7.79-5.45-8.07a5.57,5.57,0,0,0-5.09,2.66,6.89,6.89,0,0,1,6-4.25C406.93,158.5,410.27,161.88,410.23,167.76Zm-13.56-4.89h0Z"/><path class="a" d="M429.51,177.1h-9.3c.32,0,3.1,0,3.1-2.7V153.85c0-2.27-1.27-2.27-1.67-2.15l4.77-3.06V174.4C426.41,177.1,429.2,177.1,429.51,177.1Z"/><path class="a" d="M456.41,171.46a7.92,7.92,0,0,1-8,6.08c-4.93-.08-8.86-3.81-9-9.42a9,9,0,0,1,4.45-8.35,9.43,9.43,0,0,1,5.44-1.31c4,.24,7,3.38,6.92,8.27H442.46c0,4.89,2.74,8.35,7,8.5C452.39,175.35,455,174.32,456.41,171.46Zm-14-5.05c2,0,5.88,0,7.11-.16A4.61,4.61,0,0,0,453,164.9a3.87,3.87,0,0,0-.91-5.13,5.73,5.73,0,0,0-6.76.08C443.17,161.36,442.54,164.42,442.46,166.41Z"/><path class="a" d="M479.82,172.41c-.32,1.67-1.67,5.21-5.76,5.05-4.3-.16-4.93-3.81-4.93-7.75V159.53h-1.71l-.48-.35h2.19v-4.73l3.14-2.63s0,3.46,0,7.36h4.85l-.36.35h-4.49c0,4.34,0,9.11,0,10.34,0,3.46.36,5.6,3,5.84C477.71,176,479.18,174,479.82,172.41Z"/><path class="a" d="M506.36,171.46a7.92,7.92,0,0,1-8,6.08c-4.93-.08-8.87-3.81-9-9.42a9,9,0,0,1,4.46-8.35,9.41,9.41,0,0,1,5.44-1.31c4,.24,7,3.38,6.92,8.27H492.4c0,4.89,2.75,8.35,7,8.5C502.34,175.35,505,174.32,506.36,171.46Zm-14-5.05c2,0,5.89,0,7.12-.16a4.61,4.61,0,0,0,3.38-1.35,3.86,3.86,0,0,0-.92-5.13,5.72,5.72,0,0,0-6.75.08C493.12,161.36,492.48,164.42,492.4,166.41Z"/><path class="a" d="M178,199.57c-2.7-2.66-7-3.65-9.7-2a4.72,4.72,0,0,0-2,4.85c.44,2.7,2.51,4.49,6.88,5.4,7.71,1.59,10.3,4.53,9.74,9.66-.44,5.53-5.09,7.47-9.58,7.47a17.49,17.49,0,0,1-10.41-3l-.08-7.55a14.7,14.7,0,0,0,9.93,9.38c3.86.84,8-.12,8.15-4.21.16-2.9-1.39-5.76-9.14-7.55-6.72-1.59-8.23-4.73-8-8.51.16-4.53,4.21-7.35,9.58-7.31a15.9,15.9,0,0,1,7.75,1.94l0,5.61A12.57,12.57,0,0,0,178,199.57Z"/><path class="a" d="M195.09,217.66c-1.12-5.37,1.63-10.22,6.63-11.53,5.69-1.47,10.93,1.16,11.69,7.83.68,6-3.38,10.54-8.51,10.78C202.08,224.85,196.52,224,195.09,217.66Zm6.56-11.13c-3.34,1.23-4.1,6.12-3.19,10.37,1.16,5.73,4.66,7.52,7.4,7.28,4-.44,5-5.8,4.09-10.89C209.08,208.72,205.78,205,201.65,206.53Z"/><path class="a" d="M237.82,220.48c-1.52,1.87-4.89,4.57-8.31,4.3-3.82-.36-3.58-4-3.58-7.84v-7.71a2.62,2.62,0,0,0-2.82-2.74H229v9.38c0,3.86,0,6.12,2,6.8C232.77,223.34,235.91,222.31,237.82,220.48Zm-2.51-14h5.84v14c0,1.63,1.24,1.43,1.51,1.43l-4.61,3V209.07A2.52,2.52,0,0,0,235.31,206.49Z"/><path class="a" d="M261.71,224.38H253a2.58,2.58,0,0,0,2.78-2.7V210.55c0-1.91-1.43-1.83-1.66-1.75l4.77-3.1v16A2.61,2.61,0,0,0,261.71,224.38Zm11.92,0h-8.74a2.58,2.58,0,0,0,2.78-2.7v-6.84c0-3.82.12-6.16-2-6.84-1.71-.67-4.61.44-6.56,2.23,1.55-1.83,4.65-4.61,8.07-4.3,3.94.36,3.66,4.06,3.66,7.87v7.88A2.61,2.61,0,0,0,273.63,224.38Z"/><path class="a" d="M292.17,224.85c-4.54.12-8.47-3.29-8.55-9.34-.16-6.4,4.37-9.7,8.74-9.77a7.44,7.44,0,0,1,5.45,1.9v-6.56c0-1.86-1.19-2.18-1.83-2l4.89-3.18v24.24c0,2.11,1.75,1.59,1.91,1.67l-5,3.22V214.88c0-5.49-2.38-8.75-5.6-8.83-3.06-.08-5.65,3.3-5.37,8.75.2,5.21,3.18,8.35,6.28,8.58a5,5,0,0,0,4.49-2.38C296.9,222.31,295.62,224.74,292.17,224.85Z"/><path class="a" d="M325.33,219.69c-.31,1.67-1.66,5.21-5.76,5.05-4.29-.16-4.93-3.82-4.93-7.76V206.81h-1.71l-.47-.36h2.18v-4.73l3.14-2.62s0,3.46,0,7.35h4.85l-.36.36h-4.49c0,4.33,0,9.1,0,10.33,0,3.46.36,5.61,3,5.85C323.23,223.23,324.7,221.32,325.33,219.69Z"/><path class="a" d="M348.44,208a1.77,1.77,0,0,1-1.66,1.91c-1.43,0-1.67-1-2.31-1.51s-2.31-1.07-4.65,2v11.4c0,2.59,2.66,2.59,3,2.59h-9c.32,0,2.94,0,2.94-2.59V210.55c0-1.63-1-2-1.59-1.87l4.69-3v4.49c1.55-2.86,4.17-4.38,6.48-4.29A2,2,0,0,1,348.44,208Z"/><path class="a" d="M375.75,221.4c-.44,1.47-1.11,3.3-3.42,3.3-1.87,0-2.74-1.2-2.74-3.26v-7.67c-4.53,1.35-8.31,2.82-8.51,5.8a3.15,3.15,0,0,0,3.18,3.5,7.48,7.48,0,0,0,5.17-1.91c-1.39,1.47-3.42,3.69-6.8,3.69-3.65,0-4.77-2.7-4.65-4.61.24-4.29,5.88-5.2,11.61-6.83v-2.23c0-3.93-1.91-5.41-4.45-4.93-1.79.32-3.58,1.39-3.58,3.42,0,.8.48,1.19.56,2a1.74,1.74,0,0,1-1.79,1.79,1.7,1.7,0,0,1-1.75-2c.08-2.86,3.77-5,6.64-5.57,3.53-.67,7.63.2,7.51,5.49v9.74c0,2.22,1.51,2.11,2.34,1C375.51,222.11,375.71,221.52,375.75,221.4Z"/><path class="a" d="M395.6,222.51c2.83.12,5.73-.83,7.28-3.86a8.1,8.1,0,0,1-8.07,6.28,9,9,0,0,1-9.3-9.26c-.08-7.15,6.08-10.69,11.8-9.74,2.35.4,4.73,2,4.77,4.26a1.77,1.77,0,0,1-1.87,2.06,1.94,1.94,0,0,1-1.66-2.62c.63-2.26-.88-3.46-2.95-3.54-4.85-.24-8,4.34-7.11,9.86A7.24,7.24,0,0,0,395.6,222.51Z"/><path class="a" d="M421.32,224.38h-8.71c.28,0,2.94,0,2.94-2.7V200.89c0-1.63-.95-2.19-1.71-1.87l4.85-3.1,0,25.76A2.53,2.53,0,0,0,421.32,224.38Zm2.18-14c1.79-1.95.6-3.9-1.79-4h8c-.47.08-2.94,1-6.08,4.37l-1.47,1.59c-.52.6-.48,1.2,0,2,.4.56,4.69,6.36,6.32,8.11a5.52,5.52,0,0,0,3.1,1.95h-7.43c.83-.08,1.11-.92.32-2-.64-.91-4.14-5.52-4.77-6.2-.4-.48-.68-.72-1-.6Z"/><path class="a" d="M205,4.2c0,.31-.58,1-.76,1.56a15.53,15.53,0,0,1-10.92,10.11l-.07-.11c4.9-2.31,7.61-6.6,8.9-11.34L198,4.67a19.63,19.63,0,0,1-6.18,5.42l-.09-.09a27.3,27.3,0,0,0,5.36-8.06,1.16,1.16,0,0,0,.13-.5c0-.22-.24-.4-1.14-.57a2.08,2.08,0,0,1,1.61-.62c1.4,0,2.35.48,2.35,1,0,.31-.48.85-.78,1.42s-.49.85-.77,1.25c1.2-.07,2.44-.18,3.42-.27.38,0,1.13-.91,1.51-.91S205,3.76,205,4.2Z"/><path class="a" d="M254.65,6c0,.36-.45.89-.6,1.27-1.58,4.33-4.87,7.49-10.74,8.51l-.07-.11c5.18-1.93,7.43-4.71,8.54-9.09a51.63,51.63,0,0,0-7.8,1c-.54.13-.85.4-1.19.4-.8,0-1.55-1.13-1.55-2.18a1.75,1.75,0,0,1,.33-1c.53,1,1,1.29,1.67,1.24,2.51-.18,5.51-.35,8.29-.51.47,0,1.12-.91,1.43-.91C253.49,4.65,254.65,5.54,254.65,6ZM243.17,1l.07-.06a2.34,2.34,0,0,0,2,.88c.68,0,2.31-.13,3.82-.31,1.31-.17,1.66-.4,2.11-1,1.33.44,2,1,2,1.31,0,.49-.45,1-1.53,1a49.77,49.77,0,0,0-5.16.31,16.62,16.62,0,0,1-1.65.22C244.26,3.36,243.49,2.62,243.17,1Z"/><path class="a" d="M302.35,1.49c0,.38-.53.75-1,1.29a28,28,0,0,1-3.49,3.49c.25.11.38.24.38.36A25.69,25.69,0,0,0,298,9.94c0,1.42.09,3.8.09,4.53A1.38,1.38,0,0,1,297,16c-.49,0-1.27-.94-1.27-1.54A37.74,37.74,0,0,0,296,9.12c0-.43,0-.92,0-1.41a28.09,28.09,0,0,1-7.13,3.67l-.07-.09a39.88,39.88,0,0,0,10.65-9.65.89.89,0,0,0,.2-.46c0-.2-.22-.45-1.11-.65A1.66,1.66,0,0,1,299.84,0C301.24,0,302.35.87,302.35,1.49Z"/><path class="a" d="M352.17,14.08a1.09,1.09,0,0,1-1.05,1.2c-.56,0-.89-.23-1.35-1.07a14.18,14.18,0,0,0-3.85-4.47,17.65,17.65,0,0,1-8.69,5.65l-.09-.11c5.17-2.7,7.93-7,9.87-11.7a27,27,0,0,0-5.23,1c-.44.14-.73.41-1.15.41-.63,0-1.47-1.18-1.47-2.2a1.79,1.79,0,0,1,.31-1,1.74,1.74,0,0,0,1.78,1.26c.91,0,3.29-.2,5.51-.4.43,0,1.18-.91,1.51-.91.49,0,1.72,1,1.72,1.36s-.47.71-.81,1.42a25.61,25.61,0,0,1-3.06,4.9,12.47,12.47,0,0,1,5.16,2.82A2.55,2.55,0,0,1,352.17,14.08Z"/><path class="a" d="M399.83,4c0,.33-.56,1-.76,1.51-1.82,4.65-5,8.94-11.48,10.43l-.08-.13A14.85,14.85,0,0,0,394,10.65a2.72,2.72,0,0,1-.35-.45,8.86,8.86,0,0,0-3.09-2.75l.06-.11a8.39,8.39,0,0,1,4.42,1.47l.07.08a23.4,23.4,0,0,0,1.92-4.75l-4.36.24A19.7,19.7,0,0,1,386.4,10l-.09-.1a27.3,27.3,0,0,0,5.36-8.06,1.28,1.28,0,0,0,.15-.5c0-.21-.25-.41-1.16-.58a2.12,2.12,0,0,1,1.63-.61c1.4,0,2.31.45,2.31,1,0,.31-.47.88-.78,1.44l-.66,1.09,3.62-.26c.35,0,1.09-.85,1.4-.85S399.83,3.65,399.83,4Z"/><path class="a" d="M209.48,242.28a1.52,1.52,0,0,0-1.72-.36.82.82,0,0,0-.35.86c.08.48.45.8,1.22,1,1.38.28,1.84.8,1.74,1.72a1.51,1.51,0,0,1-1.71,1.33,3.15,3.15,0,0,1-1.85-.54l0-1.35a2.65,2.65,0,0,0,1.77,1.68c.69.14,1.43,0,1.45-.76,0-.51-.24-1-1.62-1.34-1.2-.28-1.47-.84-1.43-1.52s.75-1.31,1.7-1.3A2.85,2.85,0,0,1,210,242v1A2.2,2.2,0,0,0,209.48,242.28Z"/><path class="a" d="M215.55,246.29a1.63,1.63,0,0,0,1.58-.94,2,2,0,0,1-1.58,1.36,2.52,2.52,0,1,1-.42-5,3.61,3.61,0,0,1,.93.06,2.14,2.14,0,0,1,.88.35v1a2.34,2.34,0,0,0-1.12-1.14,1.68,1.68,0,0,0-1.57,0,2.21,2.21,0,0,0-.84,2.13A2.18,2.18,0,0,0,215.55,246.29Z"/><path class="a" d="M222.27,246.29a1.6,1.6,0,0,0,1.57-.94,2,2,0,0,1-1.57,1.36,2.52,2.52,0,1,1-.42-5,3.61,3.61,0,0,1,.93.06,2.14,2.14,0,0,1,.88.35v1a2.34,2.34,0,0,0-1.12-1.14,1.68,1.68,0,0,0-1.57,0,2.21,2.21,0,0,0-.84,2.13A2.18,2.18,0,0,0,222.27,246.29Z"/><path class="a" d="M228.28,246.7h-2.37c.09,0,.66,0,.66-.58v-3.78a.6.6,0,0,0-.66-.6h2c1.55,0,2.56.45,2.6,2.31A2.33,2.33,0,0,1,228.28,246.7ZM229.8,244c0-1.8-.92-2.21-1.9-2.23-.18,0-.47,0-.64,0V246c0,.5.24.59.68.59h.36C229.34,246.55,229.83,245.55,229.8,244Z"/><path class="a" d="M235.3,244.75v.08h-2.17v-.08Z"/><path class="a" d="M241.68,244.27c0,1.26-.73,2.5-1.83,2.49-1.35,0-1.89-1.43-1.88-2.57,0-1.41.79-2.45,1.95-2.47S241.69,243.05,241.68,244.27Zm-1.85-2.44c-.85-.05-1.31,1-1.25,2.29s.61,2.45,1.37,2.51c.91.09,1.22-1.24,1.17-2.32C241.05,242.89,240.54,241.88,239.83,241.83Z"/><path class="a" d="M248,244.27c0,1.26-.73,2.5-1.83,2.49-1.35,0-1.89-1.43-1.88-2.57,0-1.41.79-2.45,1.95-2.47S248,243.05,248,244.27Zm-1.85-2.44c-.85-.05-1.31,1-1.25,2.29s.61,2.45,1.37,2.51c.91.09,1.22-1.24,1.17-2.32C247.35,242.89,246.83,241.88,246.13,241.83Z"/><path class="a" d="M252,246.7H250.4a.48.48,0,0,0,.52-.51v-3.44c0-.52-.2-.53-.5-.38l1.06-.75c0,.71,0,.77,0,1.2v3.37A.51.51,0,0,0,252,246.7Z"/><path class="a" d="M257.57,245.62l-.34,1.08h-2.94a10.25,10.25,0,0,0,1.55-1.5,2.86,2.86,0,0,0,.9-2.11,1,1,0,0,0-1.23-1,1.69,1.69,0,0,0-1.12.83,1.86,1.86,0,0,1,1.36-1.25,1.29,1.29,0,0,1,1.54,1.3c0,.85-.61,1.35-1.54,2.44-.74.88-.53.83,0,.83h.46C257,246.27,257.38,246.2,257.57,245.62Z"/><path class="a" d="M272.86,242.28a1.52,1.52,0,0,0-1.72-.36.82.82,0,0,0-.35.86c.08.48.45.8,1.22,1,1.38.28,1.84.8,1.74,1.72A1.51,1.51,0,0,1,272,246.8a3.15,3.15,0,0,1-1.85-.54l0-1.35a2.65,2.65,0,0,0,1.77,1.68c.69.14,1.43,0,1.46-.76,0-.51-.25-1-1.63-1.34-1.2-.28-1.47-.84-1.43-1.52s.75-1.31,1.7-1.3a2.8,2.8,0,0,1,1.38.35v1A2.2,2.2,0,0,0,272.86,242.28Z"/><path class="a" d="M278.93,246.29a1.63,1.63,0,0,0,1.58-.94,2,2,0,0,1-1.58,1.36,2.52,2.52,0,1,1-.42-5,3.61,3.61,0,0,1,.93.06,2.05,2.05,0,0,1,.88.35v1a2.38,2.38,0,0,0-1.13-1.14,1.66,1.66,0,0,0-1.56,0,2.43,2.43,0,0,0,1.3,4.28Z"/><path class="a" d="M285.65,246.29a1.63,1.63,0,0,0,1.58-.94,2,2,0,0,1-1.58,1.36,2.52,2.52,0,1,1-.42-5,3.61,3.61,0,0,1,.93.06,2.14,2.14,0,0,1,.88.35v1a2.34,2.34,0,0,0-1.12-1.14,1.68,1.68,0,0,0-1.57,0,2.21,2.21,0,0,0-.84,2.13A2.19,2.19,0,0,0,285.65,246.29Z"/><path class="a" d="M291.67,246.7h-2.38c.09,0,.66,0,.66-.58v-3.78a.6.6,0,0,0-.66-.6h2c1.55,0,2.57.45,2.6,2.31A2.32,2.32,0,0,1,291.67,246.7Zm1.52-2.66c0-1.8-.93-2.21-1.91-2.23-.18,0-.47,0-.63,0V246c0,.5.24.59.68.59h.35C292.73,246.55,293.21,245.55,293.19,244Z"/><path class="a" d="M298.68,244.75v.08h-2.16v-.08Z"/><path class="a" d="M305.06,244.27c0,1.26-.73,2.5-1.83,2.49-1.35,0-1.89-1.43-1.88-2.57,0-1.41.79-2.45,1.95-2.47S305.07,243.05,305.06,244.27Zm-1.85-2.44c-.85-.05-1.31,1-1.25,2.29s.61,2.45,1.37,2.51c.91.09,1.22-1.24,1.17-2.32C304.43,242.89,303.92,241.88,303.21,241.83Z"/><path class="a" d="M311.36,244.27c0,1.26-.73,2.5-1.83,2.49-1.35,0-1.89-1.43-1.88-2.57,0-1.41.79-2.45,2-2.47S311.37,243.05,311.36,244.27Zm-1.85-2.44c-.85-.05-1.31,1-1.25,2.29s.61,2.45,1.37,2.51c.91.09,1.22-1.24,1.17-2.32C310.73,242.89,310.22,241.88,309.51,241.83Z"/><path class="a" d="M315.41,246.7h-1.63a.49.49,0,0,0,.53-.51v-2.85s0-.18,0-.59-.21-.53-.51-.38l1.06-.75c0,.71,0,.77,0,1.2v3.37A.51.51,0,0,0,315.41,246.7Z"/><path class="a" d="M320.75,245.25a1.64,1.64,0,0,1-3.24.24,1.55,1.55,0,0,0,1.35.93,1.11,1.11,0,0,0,1.27-1.1,1.09,1.09,0,0,0-1.27-1.21h-.05l.07,0a1.45,1.45,0,0,0,1-1.21.84.84,0,0,0-.85-.94,1.36,1.36,0,0,0-1.17.52,1.53,1.53,0,0,1,1.24-.78,1.08,1.08,0,0,1,1.3,1,1.17,1.17,0,0,1-.6,1.17A1.3,1.3,0,0,1,320.75,245.25Z"/><path class="a" d="M336.08,242.28a1.53,1.53,0,0,0-1.73-.36.83.83,0,0,0-.34.86c.08.48.44.8,1.22,1,1.38.28,1.84.8,1.74,1.72a1.51,1.51,0,0,1-1.71,1.33,3.12,3.12,0,0,1-1.85-.54l0-1.35a2.65,2.65,0,0,0,1.77,1.68c.69.14,1.42,0,1.45-.76,0-.51-.25-1-1.63-1.34-1.19-.28-1.46-.84-1.43-1.52s.75-1.31,1.71-1.3a2.85,2.85,0,0,1,1.38.35v1A2.2,2.2,0,0,0,336.08,242.28Z"/><path class="a" d="M342.14,246.29a1.61,1.61,0,0,0,1.58-.94,2,2,0,0,1-1.57,1.36,2.52,2.52,0,1,1-.42-5,3.56,3.56,0,0,1,.92.06,2.14,2.14,0,0,1,.89.35v1a2.39,2.39,0,0,0-1.12-1.14,1.68,1.68,0,0,0-1.57,0,2.44,2.44,0,0,0,1.3,4.28Z"/><path class="a" d="M348.86,246.29a1.61,1.61,0,0,0,1.58-.94,2,2,0,0,1-1.57,1.36,2.52,2.52,0,1,1-.42-5,3.56,3.56,0,0,1,.92.06,2.14,2.14,0,0,1,.89.35v1a2.39,2.39,0,0,0-1.12-1.14,1.68,1.68,0,0,0-1.57,0,2.44,2.44,0,0,0,1.3,4.28Z"/><path class="a" d="M354.88,246.7h-2.37c.08,0,.66,0,.66-.58v-3.78a.6.6,0,0,0-.66-.6h2c1.56,0,2.57.45,2.61,2.31A2.33,2.33,0,0,1,354.88,246.7ZM356.4,244c0-1.8-.92-2.21-1.9-2.23-.18,0-.48,0-.64,0V246c0,.5.24.59.68.59h.36C355.94,246.55,356.43,245.55,356.4,244Z"/><path class="a" d="M361.9,244.75v.08h-2.17v-.08Z"/><path class="a" d="M368.28,244.27c0,1.26-.73,2.5-1.83,2.49-1.36,0-1.89-1.43-1.88-2.57,0-1.41.79-2.45,1.95-2.47S368.29,243.05,368.28,244.27Zm-1.85-2.44c-.85-.05-1.31,1-1.25,2.29s.61,2.45,1.37,2.51,1.22-1.24,1.17-2.32C367.65,242.89,367.13,241.88,366.43,241.83Z"/><path class="a" d="M374.58,244.27c0,1.26-.73,2.5-1.83,2.49-1.36,0-1.89-1.43-1.88-2.57,0-1.41.79-2.45,1.95-2.47S374.59,243.05,374.58,244.27Zm-1.86-2.44c-.84-.05-1.31,1-1.24,2.29s.61,2.45,1.36,2.51c.92.09,1.23-1.24,1.18-2.32C374,242.89,373.43,241.88,372.72,241.83Z"/><path class="a" d="M378.63,246.7H377a.48.48,0,0,0,.52-.51v-2.85s0-.18,0-.59-.2-.53-.5-.38l1.05-.75v4.57A.51.51,0,0,0,378.63,246.7Z"/><path class="a" d="M383.49,245.56v.88L383,247v-1.46h-2.3l2.82-3.95v3.47h1.24l-.46.48Zm-.52-2.67c0-.31-.12-.28-.26-.09l-1.42,2c-.1.13-.12.25.08.26H383Z"/></svg>