<svg xmlns="http://www.w3.org/2000/svg" viewBox="0 0 387.8 30.46"><defs><style>.a{fill:#fff;}</style></defs><title>アセット 1</title><path class="a" d="M18.36,22.59l-1.86,6H0a58.57,58.57,0,0,0,8.71-8.42C12,16.27,14,13.05,13.75,8.4A5.83,5.83,0,0,0,6.84,2.92,9.43,9.43,0,0,0,.56,7.57s2-6.32,7.63-7c5.88-.72,8.62,3.66,8.62,7.27,0,4.81-3.41,7.64-8.62,13.76-4.17,4.89-3,4.65,0,4.65h2.58C15,26.25,17.33,25.81,18.36,22.59Z"/><path class="a" d="M46.75,15c0,7.07-4.09,14-10.29,14-7.59,0-10.62-8-10.54-14.43C26,6.65,30.34.81,36.86.69,44.17.57,46.79,8.16,46.75,15ZM36.34,1.33C31.57,1,29,6.77,29.34,14.17S32.76,27.92,37,28.28c5.13.47,6.88-7,6.6-13C43.21,7.25,40.31,1.56,36.34,1.33Z"/><path class="a" d="M63.53,28.63H54.38a2.72,2.72,0,0,0,2.95-2.86v-16s0-1,0-3.26c0-2.94-1.16-3-2.83-2.18L60.43.13c0,4,0,4.3,0,6.72V25.77C60.39,28.63,63.21,28.63,63.53,28.63Z"/><path class="a" d="M72.2,29.43a12.4,12.4,0,0,0,8.67-5.73,19.08,19.08,0,0,0,2.94-6.95A8.47,8.47,0,0,1,81,18.1C75.58,19.53,70.34,17,69.66,10.39,69.1,4.63,73.08.21,78.25,0c3.41-.16,8.26,1,9.58,7.32A19,19,0,0,1,82.7,24.42C77.65,29.83,72.64,29.43,72.2,29.43Zm1-18.6c.71,5,4,8.14,7.79,6.79s4-6.75,3.46-10C83.33,1.37,80,0,77.29.45,73.52,1.09,72.44,6,73.16,10.83Z"/><path class="a" d="M94.41,27a1.83,1.83,0,1,1,1.83,1.79A1.84,1.84,0,0,1,94.41,27Z"/><path class="a" d="M126.71,15c0,7.07-4.09,14-10.29,14-7.59,0-10.61-8-10.54-14.43C106,6.65,110.3.81,116.82.69,124.13.57,126.75,8.16,126.71,15ZM116.3,1.33c-4.77-.32-7.35,5.44-7,12.84s3.42,13.75,7.67,14.11c5.13.47,6.88-7,6.6-13C123.18,7.25,120.27,1.56,116.3,1.33Z"/><path class="a" d="M149.5,22.23v5l-2.9,3.26V22.23H133.68L149.5.05V19.57h7l-2.59,2.66Zm-2.9-15c0-1.75-.68-1.55-1.47-.48l-8,11.37c-.52.75-.68,1.43.48,1.47l9,0Z"/><path class="a" d="M162.33,27a1.83,1.83,0,1,1,1.83,1.79A1.84,1.84,0,0,1,162.33,27Z"/><path class="a" d="M191.6,22.59l-1.87,6h-16.5a58.57,58.57,0,0,0,8.71-8.42c3.26-3.94,5.28-7.16,5-11.81a5.83,5.83,0,0,0-6.91-5.48,9.46,9.46,0,0,0-6.28,4.65s2-6.32,7.63-7C187.3-.15,190,4.23,190,7.84c0,4.81-3.41,7.64-8.62,13.76-4.17,4.89-3,4.65,0,4.65H184C188.22,26.25,190.56,25.81,191.6,22.59Z"/><path class="a" d="M217.44,22.27c-.44,4.81-5.89,7.44-11.29,6.72-4.65-.6-7.56-3.66-7-7.87.48-3.86,3.86-5.56,7-6.92-1.71-.75-5.81-3.53-5.37-8,.4-4.21,4.61-6.32,8.71-6s6.75,3,6.63,6.4c-.15,3.74-4.17,5.49-6.12,6.2l2.63,1.36C215.05,15.36,217.87,18.14,217.44,22.27Zm-15.31-1.11c-.24,3.58,1.91,7.23,6.32,7.43,5.93.32,7.12-4.53,5.73-8.38-1.24-3.42-5.61-4.77-7.68-5.81A8.61,8.61,0,0,0,202.13,21.16Zm7.44-8.55c2.26-1.7,3.81-3.49,4-6,.16-2.78-1.43-6-5-6.16s-5.24,2.39-5.13,5.41C203.56,9.2,206,11,209.57,12.61Z"/><path class="a" d="M240.25,21.92c-1.12-5.37,1.62-10.22,6.63-11.53,5.69-1.47,10.93,1.15,11.69,7.83.68,6-3.38,10.53-8.51,10.77C247.24,29.11,241.68,28.28,240.25,21.92Zm6.55-11.13c-3.34,1.23-4.09,6.12-3.18,10.37,1.16,5.72,4.65,7.51,7.4,7.27,4-.43,5-5.8,4.09-10.89C254.24,13,250.94,9.24,246.8,10.79Z"/><path class="a" d="M273,28.63h-8.71a2.58,2.58,0,0,0,2.78-2.7V14.8c0-1.91-1.43-1.83-1.66-1.75l4.77-3.1v16A2.61,2.61,0,0,0,273,28.63Zm11.92,0h-8.74a2.58,2.58,0,0,0,2.78-2.7V19.09c0-3.81.12-6.16-2-6.83-1.71-.68-4.61.43-6.56,2.22,1.55-1.83,4.65-4.61,8.07-4.29,3.94.36,3.66,4.05,3.66,7.87v7.87A2.61,2.61,0,0,0,284.9,28.63Z"/><path class="a" d="M321.7,3.83c-2.7-2.66-6.95-3.66-9.7-2a4.7,4.7,0,0,0-1.94,4.85c.43,2.7,2.5,4.49,6.87,5.41,7.71,1.59,10.3,4.53,9.74,9.66-.44,5.52-5.09,7.47-9.58,7.47a17.56,17.56,0,0,1-10.41-3l-.08-7.55A14.72,14.72,0,0,0,316.53,28c3.86.83,8-.12,8.15-4.22.16-2.9-1.39-5.76-9.14-7.55-6.72-1.59-8.23-4.73-8-8.5.16-4.54,4.21-7.36,9.58-7.32a15.84,15.84,0,0,1,7.75,2l0,5.6A12.42,12.42,0,0,0,321.7,3.83Z"/><path class="a" d="M352,25.65c-.44,1.47-1.12,3.3-3.42,3.3-1.87,0-2.75-1.19-2.75-3.26V18c-4.53,1.35-8.3,2.82-8.5,5.8a3.14,3.14,0,0,0,3.18,3.5,7.44,7.44,0,0,0,5.17-1.91c-1.4,1.47-3.42,3.7-6.8,3.7-3.66,0-4.77-2.7-4.65-4.61.24-4.29,5.88-5.21,11.6-6.84V15.44c0-3.94-1.9-5.41-4.45-4.93-1.79.32-3.58,1.39-3.58,3.42,0,.79.48,1.19.56,2a1.73,1.73,0,0,1-1.79,1.79,1.7,1.7,0,0,1-1.75-2c.08-2.86,3.78-5,6.64-5.56,3.54-.68,7.63.2,7.51,5.48v9.74c0,2.23,1.51,2.11,2.35,1C351.75,26.37,352,25.77,352,25.65Z"/><path class="a" d="M365.47,28.63h-9.3c.32,0,3.1,0,3.1-2.7V5.38c0-2.27-1.27-2.27-1.67-2.15L362.37.17V25.93C362.37,28.63,365.15,28.63,365.47,28.63Z"/><path class="a" d="M387.8,23a7.92,7.92,0,0,1-8,6.08c-4.93-.08-8.87-3.82-9-9.42a9,9,0,0,1,4.46-8.35A9.43,9.43,0,0,1,380.72,10c4,.24,7,3.38,6.92,8.27H373.85c0,4.89,2.74,8.35,7,8.5C383.78,26.88,386.41,25.85,387.8,23Zm-13.95-5c2,0,5.88,0,7.11-.16a4.61,4.61,0,0,0,3.38-1.35,3.86,3.86,0,0,0-.92-5.13,5.72,5.72,0,0,0-6.75.08C374.56,12.89,373.92,16,373.85,17.94Z"/></svg>