<svg xmlns="http://www.w3.org/2000/svg" viewBox="0 0 314.23 157.12"><defs><style>.a{fill:#fff;}.b{fill:#0e0000;}</style></defs><title>アセット 1</title><polygon class="a" points="0 0 228.25 0 314.24 0 157.12 157.12 0 0"/><path class="b" d="M146,118.92v-.36h5.66V78.43h-6.94v-.36a34.13,34.13,0,0,0,5.72-1.36,30.85,30.85,0,0,0,5-2.16,25.47,25.47,0,0,0,4.22-2.83A19.14,19.14,0,0,0,163,68.31h.36v50.25H169v.36Z"/><path class="b" d="M147.21,56.82a3.5,3.5,0,0,1-3.5,3.77h-4.62a1.29,1.29,0,0,0,1.38-1.27v-4.8a1.28,1.28,0,0,0-1.38-1.26h4.12C145.1,53.2,147.22,53.78,147.21,56.82Zm-2.07-.11c0-2.3-.86-3.22-2-3.3h-.65v5.78c0,1.07.45,1.28.78,1.28h.45C144.49,60.31,145.17,59.16,145.14,56.71Z"/><path class="b" d="M154.76,60.59h-4.41a1.27,1.27,0,0,0,1.25-1.4V54.65a1.23,1.23,0,0,0-1.25-1.39h4.41a1.24,1.24,0,0,0-1.26,1.39v4.54A1.28,1.28,0,0,0,154.76,60.59Z"/><path class="b" d="M162.41,54.28c-.64-.58-1.66-1.36-2.57-.84a.94.94,0,0,0-.36,1.16c.18.6.71.91,1.77,1.16,2.38.59,3.15,1.59,2.79,3.29-.32,1.4-1.62,1.78-2.87,1.75a6.56,6.56,0,0,1-3.08-.74V57.4a6.22,6.22,0,0,0,3,2.91c.88.29,1.92.35,2-.44s-.28-1.35-2.38-1.94-2.65-1.48-2.49-2.88,1.47-2,3-1.94a5.58,5.58,0,0,1,2.28.46v2.15A5.12,5.12,0,0,0,162.41,54.28Z"/><path class="b" d="M172.63,59.61a2,2,0,0,0,2-1.14,2.84,2.84,0,0,1-2.06,2.19,3.82,3.82,0,1,1-1.12-7.51,6.63,6.63,0,0,1,1.95.2,2.54,2.54,0,0,1,.91.42l0,2.26a7,7,0,0,0-1.7-2.2,1.84,1.84,0,0,0-2.08-.31c-.86.43-1.13,1.89-.91,3.18A3.21,3.21,0,0,0,172.63,59.61Z"/><path class="b" d="M130.56,12.36a3.27,3.27,0,0,0,3.19-1.9,4,4,0,0,1-3.17,2.74,4.91,4.91,0,0,1-5.7-4.85,4.93,4.93,0,0,1,4.84-5.27,7.81,7.81,0,0,1,1.87.11,4.37,4.37,0,0,1,1.78.7v2a4.75,4.75,0,0,0-2.27-2.29,3.37,3.37,0,0,0-3.16.08A4.45,4.45,0,0,0,126.23,8,4.42,4.42,0,0,0,130.56,12.36Z"/><path class="b" d="M144.07,13.18H142a7.22,7.22,0,0,1-1-1.46l-1.3-2.24a2.06,2.06,0,0,0-2.28-1.13v3.94c0,.86.89.89,1.06.89h-3.62a1.12,1.12,0,0,0,1.22-1.12V4.29a1.13,1.13,0,0,0-1.22-1.11c1.26,0,2.53-.07,3.63-.06,1.73,0,2.86.21,3.46,1.11a2.41,2.41,0,0,1,.41,1.5,2.64,2.64,0,0,1-1,2,2.72,2.72,0,0,1-1.34.57c.18.06.58.22,1.23,1.34l1.28,2.19A2.87,2.87,0,0,0,144.07,13.18Zm-3-7.47c0-2.15-1.45-2.57-3.63-2.46V8.19a9.19,9.19,0,0,0,1.3-.07A2.33,2.33,0,0,0,141,5.71Z"/><path class="b" d="M152.5,3.18a3.06,3.06,0,0,0-1.83,1.55L149,7.78a3.14,3.14,0,0,0-.37,1.57V12a1.2,1.2,0,0,0,1.2,1.18h-3.76a1.2,1.2,0,0,0,1.23-1.12V9.5A2.38,2.38,0,0,0,147,8.19L144.7,4.34a2.17,2.17,0,0,0-1.62-1.16h3.75c-.74.05-1,.63-.61,1.32l1.9,3.32c.2.35.45.38.7-.07L150.36,5c.53-.94.4-1.66-.63-1.81Z"/><path class="b" d="M158.27,4.26a3.07,3.07,0,0,0-3.49-.72,1.69,1.69,0,0,0-.7,1.74c.16,1,.9,1.61,2.47,1.94,2.77.57,3.7,1.63,3.5,3.47-.15,2-1.83,2.68-3.44,2.68a6.31,6.31,0,0,1-3.74-1.08l0-2.71A5.31,5.31,0,0,0,156.41,13c1.39.3,2.87,0,2.93-1.52.06-1-.5-2.07-3.29-2.71-2.41-.57-3-1.7-2.88-3.06C153.23,4,154.68,3,156.61,3a5.73,5.73,0,0,1,2.79.69v2A4.59,4.59,0,0,0,158.27,4.26Z"/><path class="b" d="M170.27,5.58a5,5,0,0,0-1-1.4A3.16,3.16,0,0,0,167,3.33h-.52V11.9a1.24,1.24,0,0,0,1.34,1.28h-4a1.23,1.23,0,0,0,1.32-1.28V3.33h-.6a3.2,3.2,0,0,0-2.31.88,5.12,5.12,0,0,0-1,1.4l.42-2.43h8.28Z"/><path class="b" d="M180,13.18h-3.83s1.31-.12.86-1.3l-1-2.79h-3.3l-.93,2.44c-.32.87-.1,1.56,1,1.65h-2.83c.64,0,1.27-.62,1.67-1.69L175,2.75a.63.63,0,0,0,0,.13l3.53,9.05A1.7,1.7,0,0,0,180,13.18Zm-6.2-6.93-1,2.7,3.16,0-1.05-3c-.25-.64-.37-.8-.5-.8S174,5.69,173.81,6.25Zm6.2,6.93h0Z"/><path class="b" d="M190.07,13.18H188a7.65,7.65,0,0,1-1-1.46l-1.3-2.24a2,2,0,0,0-2.27-1.13v3.94c0,.86.89.89,1.06.89h-3.62a1.12,1.12,0,0,0,1.22-1.12V4.29a1.13,1.13,0,0,0-1.22-1.11c1.26,0,2.53-.07,3.63-.06,1.73,0,2.86.21,3.46,1.11a2.48,2.48,0,0,1,.41,1.5,2.64,2.64,0,0,1-1,2,2.72,2.72,0,0,1-1.34.57c.18.06.58.22,1.23,1.34l1.28,2.19A2.83,2.83,0,0,0,190.07,13.18Zm-3-7.47c0-2.15-1.45-2.57-3.63-2.46V8.19a9.19,9.19,0,0,0,1.3-.07A2.33,2.33,0,0,0,187,5.71Z"/><path class="b" d="M120.59,18.23a2.15,2.15,0,0,0-2.44-.51,1.18,1.18,0,0,0-.49,1.22c.11.68.63,1.13,1.73,1.36,1.94.4,2.59,1.14,2.45,2.43a2.13,2.13,0,0,1-2.41,1.88,4.43,4.43,0,0,1-2.62-.76l0-1.9a3.7,3.7,0,0,0,2.5,2.36c1,.21,2,0,2-1.06,0-.73-.35-1.45-2.3-1.9-1.69-.4-2.07-1.19-2-2.14,0-1.14,1.06-1.85,2.41-1.84a4,4,0,0,1,1.95.49v1.41A3.13,3.13,0,0,0,120.59,18.23Z"/><path class="b" d="M127.53,23.72c-.11.37-.28.83-.86.83s-.69-.3-.69-.82V21.8c-1.14.34-2.09.71-2.14,1.46a.79.79,0,0,0,.8.88,1.88,1.88,0,0,0,1.3-.48,2.32,2.32,0,0,1-1.71.93,1.07,1.07,0,0,1-1.17-1.16c.06-1.08,1.48-1.31,2.92-1.72v-.56c0-1-.48-1.36-1.12-1.24-.45.08-.9.35-.9.86,0,.2.12.3.14.51a.44.44,0,0,1-.45.45.43.43,0,0,1-.44-.5c0-.72,1-1.26,1.67-1.4.89-.17,1.92.05,1.89,1.38v2.45c0,.56.38.53.59.25C127.47,23.9,127.52,23.75,127.53,23.72Z"/><path class="b" d="M130.1,24.47h-2.19a.68.68,0,0,0,.74-.68V18.55c0-.4-.24-.54-.43-.46l1.22-.78v6.48A.64.64,0,0,0,130.1,24.47Zm.55-3.52c.45-.49.15-1-.45-1h2a3.46,3.46,0,0,0-1.53,1.1l-.37.4c-.13.15-.12.3,0,.5s1.18,1.6,1.59,2a1.39,1.39,0,0,0,.78.49h-1.87c.21,0,.28-.23.08-.5s-1-1.39-1.2-1.56-.17-.18-.24-.15Z"/><path class="b" d="M136.4,23.49a2.76,2.76,0,0,1-2.09,1.08c-1-.09-.9-1-.9-2V20.66a.66.66,0,0,0-.71-.69h1.49v2.36c0,1,0,1.54.5,1.71A1.93,1.93,0,0,0,136.4,23.49ZM135.77,20h1.47v3.52c0,.41.31.36.38.36l-1.16.75v-4A.63.63,0,0,0,135.77,20Z"/><path class="b" d="M141.79,24.05a2.93,2.93,0,0,0,.86-1.06l-.28,1.51h-3.92l2.82-4.09c.18-.26.17-.4-.18-.4h-.6a1.92,1.92,0,0,0-1.22.4,3.2,3.2,0,0,0-.73.69l.33-1.16h3.68c-.72,1-2.7,3.86-2.83,4.08s-.12.41.21.41h.58A2.22,2.22,0,0,0,141.79,24.05Z"/><path class="b" d="M148.17,20a1.32,1.32,0,0,0-.61.38,1.52,1.52,0,0,0-.31.5l-1.56,3.82L145.12,26c-.22.53-.47.59-.77.55a.43.43,0,0,1-.34-.53.41.41,0,0,1,.42-.29c.19,0,.27.22.38.24s.29-.11.39-.33l.44-1.07-1.8-4.07a.94.94,0,0,0-.78-.57h2s-.61.05-.39.58l1,2.42c.09.19.17.31.3.31s.22-.22.32-.41l.8-2,0-.11c.16-.46-.08-.76-.61-.83Z"/><path class="b" d="M148.28,22.78a2.37,2.37,0,0,1,1.67-2.9,2.19,2.19,0,0,1,2.94,2,2.32,2.32,0,0,1-2.14,2.71A2.27,2.27,0,0,1,148.28,22.78Zm1.65-2.8c-.84.31-1,1.54-.8,2.61.29,1.44,1.17,1.89,1.86,1.83,1-.11,1.27-1.46,1-2.74S151,19.59,149.93,20Z"/><path class="b" d="M158,23.9a2.29,2.29,0,0,0,2.23-1.33A2.79,2.79,0,0,1,158,24.49a3.44,3.44,0,0,1-4-3.4,3.46,3.46,0,0,1,3.39-3.7,5.23,5.23,0,0,1,1.31.09A3.11,3.11,0,0,1,160,18V19.4a3.39,3.39,0,0,0-1.59-1.62,2.4,2.4,0,0,0-2.21.07,3.1,3.1,0,0,0-1.19,3A3.09,3.09,0,0,0,158,23.9Z"/><path class="b" d="M161.31,22.78a2.37,2.37,0,0,1,1.67-2.9,2.19,2.19,0,0,1,2.94,2,2.32,2.32,0,0,1-2.14,2.71A2.27,2.27,0,0,1,161.31,22.78ZM163,20c-.84.31-1,1.54-.8,2.61.29,1.44,1.17,1.89,1.86,1.83,1-.11,1.27-1.46,1-2.74S164,19.59,163,20Z"/><path class="b" d="M168.85,24.47h-2.18a.66.66,0,0,0,.7-.68V21c0-.52-.35-.5-.42-.48l1.19-.77v4A.66.66,0,0,0,168.85,24.47Zm1.36-4.65c1,.09.9,1,.9,2v2a.66.66,0,0,0,.71.68h-2.19a.66.66,0,0,0,.7-.68V21.86c0-.88,0-1.41-.55-1.54a2.19,2.19,0,0,0-1.62.59A2.83,2.83,0,0,1,170.21,19.82Zm3,0c1,.09.91,1,.91,2v2a.66.66,0,0,0,.71.68h-2.19a.66.66,0,0,0,.7-.68v-1.9c0-.88,0-1.37-.52-1.52a1.92,1.92,0,0,0-1.65.54A2.87,2.87,0,0,1,173.19,19.83Z"/><path class="b" d="M180.13,22.12a2.25,2.25,0,0,1-2,2.43,2.1,2.1,0,0,1-1.46-.54v2c0,.65.67.65.75.65h-2.21a.65.65,0,0,0,.68-.65V21.06c0-.48-.27-.56-.44-.52l1.22-.77v.93h0v1.66c0,1.5.88,2.14,1.67,2.06s1.07-1,1.06-2.18-.64-2-1.36-2a1.38,1.38,0,0,0-1.28.67,1.7,1.7,0,0,1,1.5-1.07C179.31,19.79,180.14,20.64,180.13,22.12Zm-3.4-1.23h0Z"/><path class="b" d="M183.14,24.47H180.8c.08,0,.78,0,.78-.68V18.62c0-.58-.32-.58-.42-.54l1.2-.77v6.48C182.36,24.47,183.06,24.47,183.14,24.47Z"/><path class="b" d="M188.07,23.05a2,2,0,0,1-2,1.53,2.29,2.29,0,0,1-2.26-2.37,2.26,2.26,0,0,1,1.12-2.1,2.37,2.37,0,0,1,1.37-.33A1.87,1.87,0,0,1,188,21.86h-3.47A1.91,1.91,0,0,0,186.33,24,1.72,1.72,0,0,0,188.07,23.05Zm-3.51-1.27c.5,0,1.48,0,1.79,0a1.15,1.15,0,0,0,.85-.34,1,1,0,0,0-.23-1.29,1.44,1.44,0,0,0-1.7,0A2.18,2.18,0,0,0,184.56,21.78Z"/><path class="b" d="M192.11,23.29a1.43,1.43,0,0,1-1.45,1.27c-1.08,0-1.24-1-1.24-1.95V20.05H189l-.12-.09h.55V18.77l.79-.66s0,.87,0,1.85h1.22l-.09.09H190.2c0,1.09,0,2.29,0,2.6,0,.87.09,1.41.76,1.47A1.15,1.15,0,0,0,192.11,23.29Z"/><path class="b" d="M196.94,23.05a2,2,0,0,1-2,1.53,2.29,2.29,0,0,1-2.26-2.37,2.26,2.26,0,0,1,1.12-2.1,2.37,2.37,0,0,1,1.37-.33,1.87,1.87,0,0,1,1.74,2.08h-3.47A1.91,1.91,0,0,0,195.2,24,1.72,1.72,0,0,0,196.94,23.05Zm-3.51-1.27c.5,0,1.48,0,1.79,0a1.15,1.15,0,0,0,.85-.34,1,1,0,0,0-.23-1.29,1.44,1.44,0,0,0-1.7,0A2.18,2.18,0,0,0,193.43,21.78Z"/><path class="b" d="M135.55,29.66a2.15,2.15,0,0,0-2.44-.51,1.18,1.18,0,0,0-.49,1.22c.11.68.63,1.13,1.73,1.36,1.94.4,2.59,1.14,2.45,2.43A2.13,2.13,0,0,1,134.39,36a4.43,4.43,0,0,1-2.62-.76l0-1.9a3.7,3.7,0,0,0,2.5,2.36c1,.21,2,0,2.05-1.06,0-.73-.35-1.45-2.3-1.9-1.69-.4-2.07-1.19-2-2.14,0-1.14,1.06-1.85,2.41-1.84a4,4,0,0,1,2,.49V30.7A3.13,3.13,0,0,0,135.55,29.66Z"/><path class="b" d="M138,34.21a2.36,2.36,0,0,1,1.67-2.9,2.19,2.19,0,0,1,2.94,2A2.32,2.32,0,0,1,140.48,36,2.27,2.27,0,0,1,138,34.21Zm1.65-2.8c-.84.31-1,1.54-.8,2.61.29,1.44,1.17,1.89,1.86,1.83,1-.11,1.27-1.46,1-2.74S140.7,31,139.66,31.41Z"/><path class="b" d="M146.89,34.92A2.76,2.76,0,0,1,144.8,36c-1-.09-.9-1-.9-2V32.09a.66.66,0,0,0-.71-.69h1.49v2.36c0,1,0,1.54.5,1.71A1.93,1.93,0,0,0,146.89,34.92Zm-.63-3.52h1.47v3.52c0,.41.32.36.38.36L147,36v-4A.63.63,0,0,0,146.26,31.4Z"/><path class="b" d="M151.06,35.9h-2.19a.65.65,0,0,0,.7-.68v-2.8c0-.48-.36-.46-.42-.44l1.2-.78v4A.66.66,0,0,0,151.06,35.9Zm3,0h-2.2a.65.65,0,0,0,.71-.68V33.5c0-1,0-1.55-.51-1.72a1.89,1.89,0,0,0-1.66.56,2.66,2.66,0,0,1,2-1.08c1,.09.92,1,.92,2v2A.65.65,0,0,0,154.06,35.9Z"/><path class="b" d="M156.88,36a2.15,2.15,0,0,1-2.15-2.35,2.25,2.25,0,0,1,2.2-2.46,1.87,1.87,0,0,1,1.37.48V30c0-.47-.3-.55-.46-.5l1.23-.8v6.1c0,.53.44.4.48.42l-1.25.81V33.51c0-1.38-.6-2.2-1.41-2.22s-1.42.83-1.35,2.2.8,2.1,1.58,2.16a1.26,1.26,0,0,0,1.13-.6A1.54,1.54,0,0,1,156.88,36Z"/><path class="b" d="M163.37,34.72A1.44,1.44,0,0,1,161.91,36c-1.08,0-1.23-1-1.23-2V31.48h-.44l-.12-.09h.56V30.2l.79-.66s0,.87,0,1.85h1.21l-.08.09h-1.13c0,1.09,0,2.29,0,2.6,0,.87.08,1.41.76,1.47A1.17,1.17,0,0,0,163.37,34.72Z"/><path class="b" d="M167.35,31.77a.45.45,0,0,1-.42.48c-.36,0-.42-.26-.58-.38s-.58-.27-1.17.51v2.87c0,.65.67.65.75.65h-2.27c.08,0,.74,0,.74-.65V32.42c0-.41-.25-.49-.4-.47l1.18-.75v1.13a1.89,1.89,0,0,1,1.63-1.08A.52.52,0,0,1,167.35,31.77Z"/><path class="b" d="M172.4,35.15c-.11.37-.28.83-.86.83s-.69-.3-.69-.82V33.23c-1.14.34-2.09.71-2.14,1.46a.79.79,0,0,0,.8.88,1.88,1.88,0,0,0,1.3-.48,2.32,2.32,0,0,1-1.71.93,1.07,1.07,0,0,1-1.17-1.16c.06-1.08,1.48-1.31,2.92-1.72v-.56c0-1-.48-1.36-1.12-1.24-.45.08-.9.35-.9.86,0,.2.12.3.14.51a.44.44,0,0,1-.45.45.43.43,0,0,1-.44-.5c0-.72.95-1.26,1.67-1.4.89-.17,1.92,0,1.89,1.38v2.45c0,.56.38.53.59.25C172.34,35.33,172.39,35.18,172.4,35.15Z"/><path class="b" d="M175.54,35.43a1.84,1.84,0,0,0,1.83-1,2,2,0,0,1-2,1.58A2.26,2.26,0,0,1,173,33.71a2.44,2.44,0,0,1,3-2.45c.59.1,1.19.51,1.2,1.07a.45.45,0,0,1-.47.52.49.49,0,0,1-.42-.66c.16-.57-.22-.87-.74-.89-1.22-.06-2,1.09-1.79,2.48A1.82,1.82,0,0,0,175.54,35.43Z"/><path class="b" d="M180.16,35.9H178a.68.68,0,0,0,.74-.68V30c0-.41-.24-.55-.43-.47l1.22-.78v6.48A.64.64,0,0,0,180.16,35.9Zm.55-3.52c.45-.49.15-1-.45-1h2a3.46,3.46,0,0,0-1.53,1.1l-.37.4c-.13.15-.12.3,0,.5s1.18,1.6,1.59,2a1.39,1.39,0,0,0,.78.49h-1.87c.21,0,.28-.23.08-.5s-1-1.39-1.2-1.56-.17-.18-.24-.15Z"/><path class="b" d="M156.86,39.37s-.06,0-.07.09a.08.08,0,0,0,0,0c0,.07,0,.16-.05.26s0,.2-.08.32-.05.18-.07.27c-.28.94-.78,2.32-1.15,3.24a8.44,8.44,0,0,0-.44,1.27,2.67,2.67,0,0,0-.1.82,5,5,0,0,0,.08.69,4.41,4.41,0,0,0,.17.58,2.56,2.56,0,0,0,.21.44,1.48,1.48,0,0,0,.13.21,1.68,1.68,0,0,0,.24.29,1.61,1.61,0,0,0,.39.31,1.35,1.35,0,0,0,.61.21h.16a1.38,1.38,0,0,0,.59-.14,2.16,2.16,0,0,0,.8-.69l.13-.2a2.74,2.74,0,0,0,.21-.42,3.2,3.2,0,0,0,.17-.55,3.38,3.38,0,0,0,.06-1,4,4,0,0,0-.07-.46,8.21,8.21,0,0,0-.57-1.63,17.81,17.81,0,0,1-1.13-3.13,7.28,7.28,0,0,1-.15-.73h0c0-.07,0-.1,0-.11Z"/></svg>